<?xml version="1.0" standalone="no"?><!DOCTYPE svg PUBLIC "-//W3C//DTD SVG 1.1//EN" "http://www.w3.org/Graphics/SVG/1.1/DTD/svg11.dtd"><svg t="1612350740759" class="icon" viewBox="0 0 1024 1024" version="1.1" xmlns="http://www.w3.org/2000/svg" p-id="6327" xmlns:xlink="http://www.w3.org/1999/xlink" width="200" height="200"><defs><style type="text/css"></style></defs><path d="M749.2 589.6l-121.8-51.5s-17.7-18.2-20.3-42.8l0.9-17.1c28.6-19.4 50.1-48.6 63.7-82.9 41-1 41.8-100 21.5-110.5 7.1-80.5 7-218.9-179.4-220.7h-3.6c-186.3 1.8-186.5 140.2-179.4 220.7-20.3 10.6-19.6 109.5 21.5 110.5 13.6 34.3 35.1 63.5 63.7 82.9l0.9 17.1c-2.5 24.5-20.3 42.8-20.3 42.8l-121.8 51.5C110.3 683 128 865.9 128 865.9s84.5 93.7 383 94.1h2c298.5-0.4 383-94.1 383-94.1S913.7 683 749.2 589.6z" fill="#2C974B" p-id="6328"></path></svg>