<?xml version="1.0" standalone="no"?><!DOCTYPE svg PUBLIC "-//W3C//DTD SVG 1.1//EN" "http://www.w3.org/Graphics/SVG/1.1/DTD/svg11.dtd"><svg t="1612510750336" class="icon" viewBox="0 0 1024 1024" version="1.1" xmlns="http://www.w3.org/2000/svg" p-id="3196" xmlns:xlink="http://www.w3.org/1999/xlink" width="200" height="200"><defs><style type="text/css"></style></defs><path d="M637.875946 0c-137.133144 0-260.962327 80.847152-317.248319 205.699716-55.26261 124.852564-32.748214 271.196143 59.356137 372.510929l-96.197877 118.712274-106.431694-85.96406c-8.187053-6.14029-19.444252-5.116908-25.584542 3.070145L112.881148 662.127942c-6.14029 8.187053-5.116908 19.444252 3.070145 25.584542l106.431694 85.964061-37.865122 47.075557-76.753626-60.379519c-4.093527-3.070145-8.187053-4.093527-13.303961-4.093527s-9.210435 3.070145-12.280581 6.14029l-38.888503 48.098939c-2.046763 4.093527-4.093527 8.187053-3.070145 13.303962 1.023382 5.116908 3.070145 9.210435 6.14029 12.28058l75.730244 61.4029-10.233817 12.28058c-7.163672 9.210435-10.233817 20.467633-9.210435 32.748214 1.023382 11.257198 7.163672 22.514397 16.374107 29.678068l52.192465 41.958649c18.42087 15.350725 46.052175 12.28058 60.379519-6.14029l274.266288-339.762716c129.969472 53.215847 278.359815 22.514397 376.604456-76.753625 98.244641-99.268022 127.922709-248.681746 73.68348-377.627837C903.955181 83.917297 778.079235 0 637.875946 0z m0 226.16735c49.12232 0 92.104351 29.678069 111.548602 74.706862 18.42087 45.028794 8.187053 97.221259-25.584542 130.992854-34.794977 34.794977-85.964061 45.028794-130.992854 25.584542-45.028794-18.42087-74.706862-62.426282-74.706862-111.548603 0-31.724832 12.28058-62.426282 34.794977-84.940678 22.514397-22.514397 53.215847-34.794977 84.940679-34.794977z" p-id="3197" fill="#2C974B"></path></svg>