<?xml version="1.0" standalone="no"?><!DOCTYPE svg PUBLIC "-//W3C//DTD SVG 1.1//EN" "http://www.w3.org/Graphics/SVG/1.1/DTD/svg11.dtd"><svg t="1612350281905" class="icon" viewBox="0 0 1820 1024" version="1.1" xmlns="http://www.w3.org/2000/svg" p-id="3388" xmlns:xlink="http://www.w3.org/1999/xlink" width="355.46875" height="200"><defs><style type="text/css"></style></defs><path d="M1283.508148 815.881481c-32.331852-23.419259-79.739259-68.077037-79.739259-90.548148V409.6c0-150.660741-114.157037-275.247407-260.551111-291.65037 0.758519-2.74963 1.137778-5.688889 1.137778-8.722963 0-18.868148-15.265185-34.133333-34.133334-34.133334s-34.133333 15.265185-34.133333 34.133334c0 3.034074 0.379259 5.878519 1.137778 8.722963C730.832593 134.352593 616.675556 258.939259 616.675556 409.6v320.853333c0 18.014815-41.339259 58.785185-79.928889 85.617778-7.395556 5.12-10.524444 14.411852-7.86963 22.945185 2.654815 8.533333 10.619259 14.411852 19.531852 14.411852H1272.13037c11.282963 0 20.48-9.197037 20.48-20.48-0.094815-7.111111-3.602963-13.368889-9.102222-17.066667z m-121.647407-512.568888c2.56 6.162963 4.93037 12.325926 7.111111 18.678518 9.291852 27.496296 14.317037 56.983704 14.317037 87.608889v315.733333c0 7.49037 2.654815 15.54963 6.921481 23.798519-4.361481-8.248889-6.921481-16.308148-6.921481-23.798519V409.6c0-30.625185-5.025185-60.112593-14.317037-87.608889-2.180741-6.352593-4.551111-12.515556-7.111111-18.678518s-5.404444-12.136296-8.438519-18.014815c3.034074 5.878519 5.783704 11.851852 8.438519 18.014815z m30.53037 449.801481c-0.663704-1.232593-1.327407-2.37037-1.991111-3.602963 0.663704 1.232593 1.327407 2.465185 1.991111 3.602963z m-42.097778-473.694815z m-21.238518-33.185185c2.654815 3.508148 5.12 7.111111 7.585185 10.714074-2.465185-3.697778-5.025185-7.205926-7.585185-10.714074s-5.30963-6.921481-8.059259-10.334815c2.74963 3.413333 5.404444 6.826667 8.059259 10.334815z m-12.325926-15.36zM633.362963 746.571852c0.568889-1.422222 1.137778-2.74963 1.611852-4.171852-0.474074 1.422222-1.042963 2.74963-1.611852 4.171852-16.687407 38.494815-82.488889 84.574815-84.859259 86.186667 2.275556-1.611852 68.171852-47.691852 84.859259-86.186667zM910.222222 948.906667c37.736296 0 68.266667-38.21037 68.266667-75.093334H841.955556c0 36.882963 30.53037 75.093333 68.266666 75.093334z" p-id="3389" fill="#bfbfbf"></path></svg>